<svg width="598" height="664" viewBox="0 0 598 664" fill="none" xmlns="http://www.w3.org/2000/svg">
<path d="M32.3335 565.333V138.667C32.3335 101.33 32.3335 82.6613 39.5998 68.4007C45.9912 55.8563 56.1898 45.6577 68.7342 39.2663C82.9948 32 101.663 32 139 32H459C496.337 32 515.007 32 529.267 39.2663C541.81 45.6577 552.01 55.8563 558.4 68.4007C565.667 82.6613 565.667 101.33 565.667 138.667V498.667H99.0002C62.1812 498.667 32.3335 528.513 32.3335 565.333ZM32.3335 565.333C32.3335 602.153 62.1812 632 99.0002 632H565.667M199 165.333H399M199 298.667H399M532.333 498.667V632" stroke="#3D2528" stroke-width="64" stroke-linecap="round" stroke-linejoin="round"/>
</svg>
