<svg width="525" height="69" viewBox="0 0 525 69" fill="none" xmlns="http://www.w3.org/2000/svg">
<path d="M28.0483 55.0146L13.131 55.0918C17.2916 53.1344 19.3719 49.0392 19.3719 42.8063V31.9115C20.2852 31.6025 21.1731 31.2419 22.0357 30.8298V42.8063C22.0357 45.8455 22.5685 48.4211 23.634 50.533C24.6995 52.5935 26.1709 54.0873 28.0483 55.0146ZM66.4071 0.0772666C64.5297 1.00448 63.0583 2.49832 61.9927 4.55879C60.9272 6.61926 60.3945 9.19485 60.3945 12.2856C60.3945 36.0325 60.3945 48.1892 60.3945 48.7559V55.0918H57.7307L21.4268 9.58119C20.0061 7.72676 18.7377 6.41321 17.6214 5.64054C16.5051 4.86786 15.5918 4.63606 14.8815 4.94513C14.2219 5.2542 13.7145 5.82083 13.3593 6.64501C13.0041 7.41769 12.7758 8.42217 12.6743 9.65845C12.3192 13.7279 13.4354 17.1792 16.0231 20.0123C18.6615 22.794 22.264 24.1333 26.8305 24.0302C25.3084 26.1422 23.2534 27.6876 20.6657 28.6663C18.1288 29.645 15.5411 30.0056 12.9027 29.748C10.2642 29.4905 7.87949 28.7178 5.74844 27.43C3.16075 25.8331 1.43562 23.6439 0.573053 20.8623C-0.238772 18.0291 -0.188033 15.2217 0.725271 12.4401C1.68931 9.65845 3.26223 7.36618 5.44401 5.56327C7.42283 3.86338 9.47777 2.60134 11.6088 1.77716C13.7399 0.901455 15.7948 0.412093 17.7736 0.309071C19.8032 0.154535 22.0357 0.0772666 24.4712 0.0772666C26.9067 0.0772666 29.4436 0.0515111 32.082 0L57.7307 32.6069V12.2856C57.7307 6.00112 55.6504 1.90593 51.4897 0L66.4071 0.0772666Z" fill="#EDAF6C"/>
<path d="M84.2313 36.5476C84.2821 34.3841 84.3074 32.8387 84.3074 31.9115C84.206 31.963 83.9269 32.2206 83.4702 32.6842C83.0643 33.1478 82.7853 33.4569 82.6331 33.6114C82.5316 33.7144 82.2779 33.9978 81.872 34.4614C81.5168 34.8735 81.2631 35.2083 81.1109 35.4658C80.9587 35.6719 80.705 36.0067 80.3498 36.4703C79.9946 36.8824 79.7409 37.243 79.5887 37.5521C79.4365 37.8611 79.2335 38.2732 78.9798 38.7884C78.7261 39.252 78.5232 39.6898 78.371 40.1019C78.2188 40.514 78.0665 40.9776 77.9143 41.4927C77.8128 42.0078 77.7114 42.523 77.6099 43.0381C77.4069 44.2744 77.4323 45.2531 77.686 45.9742C77.9397 46.6954 78.3456 47.056 78.9037 47.056C80.02 46.953 80.984 46 81.7959 44.1971C82.6584 42.3427 83.4702 39.7928 84.2313 36.5476ZM84.2313 42.9608C83.7239 44.7637 83.1912 46.3348 82.6331 47.6741C82.1257 48.9619 81.4153 50.3012 80.502 51.692C79.6394 53.0829 78.5232 54.1646 77.1532 54.9373C75.834 55.6585 74.2865 56.019 72.5106 56.019C69.6692 56.019 67.4113 55.0146 65.7369 53.0056C64.1133 50.9451 63.3776 48.5241 63.5298 45.7424C63.7327 42.9093 64.8236 40.4625 66.8025 38.402C68.2231 36.9082 69.999 35.6204 72.1301 34.5386C74.2611 33.4054 76.1385 32.5812 77.7621 32.0661C79.4365 31.5509 80.984 30.7783 82.4047 29.748C83.8762 28.6663 84.8148 27.3012 85.2208 25.6529C85.6267 23.953 85.5506 22.3819 84.9924 20.9395C84.485 19.4457 83.3688 18.6215 81.6436 18.467C80.7811 18.4155 79.9185 18.6473 79.0559 19.1624C78.2441 19.6775 77.6099 20.3471 77.1532 21.1713C76.7473 21.944 76.6712 22.9227 76.9249 24.1075C77.1786 25.2408 77.8636 26.374 78.9798 27.5073C77.9143 28.8466 76.4683 29.748 74.6416 30.2116C72.815 30.6237 71.0645 30.4177 69.3901 29.5935C67.7665 28.7693 66.7263 27.3785 66.2697 25.4211C65.9145 22.6394 67.5635 20.2441 71.2168 18.2352C75.2251 16.0717 79.6648 15.3247 84.5358 15.9944C90.3708 16.7156 94.303 19.3684 96.3326 23.953C97.1952 25.9104 97.6265 28.1512 97.6265 30.6753L97.7026 44.8925C97.7026 47.6226 97.9563 49.6831 98.4637 51.0739C98.971 52.4647 99.7829 53.0571 100.899 52.8511C102.371 52.3359 102.929 50.6103 102.574 47.6741C102.269 44.6864 101.28 42.1881 99.6053 40.1792C102.497 38.6853 104.73 39.0459 106.303 41.2609C107.673 43.3214 107.876 45.794 106.912 48.6786C105.795 52.1299 103.411 54.3449 99.7575 55.3236C98.5905 55.6842 97.322 55.8645 95.9521 55.8645C88.2397 55.8645 84.3328 51.5633 84.2313 42.9608Z" fill="#EDAF6C"/>
<path d="M117.414 21.4804C116.044 21.7895 115.536 23.4121 115.891 26.3483C116.348 30.4177 118.048 34.1523 120.991 37.5521C125.862 43.1153 132.128 44.9955 139.789 43.1926L143.214 42.1109C143.062 43.3987 142.732 44.6349 142.225 45.8197C141.768 46.953 141.185 48.009 140.474 48.9877C139.764 49.9664 138.927 50.8679 137.963 51.692C137.05 52.5162 136.009 53.2374 134.842 53.8555C133.726 54.4737 132.534 54.963 131.265 55.3236C126.191 56.7144 121.447 56.0448 117.033 53.3147C114.851 51.9754 113.025 50.3012 111.553 48.2923C110.132 46.2318 109.168 44.0683 108.661 41.8018C108.204 39.5353 108.027 37.2172 108.128 34.8477C108.23 32.4267 108.763 30.1344 109.727 27.9709C110.741 25.8074 111.959 23.8757 113.38 22.1758C114.851 20.4244 116.703 19.0593 118.936 18.0806C121.168 17.0504 123.553 16.5353 126.09 16.5353C129.794 16.5353 132.28 17.7973 133.549 20.3214C134.817 22.8455 134.792 25.3953 133.472 27.9709C132.204 30.495 130.276 31.757 127.688 31.757C126.978 28.9238 125.456 26.4255 123.122 24.262C120.838 22.0985 118.936 21.1713 117.414 21.4804Z" fill="#EDAF6C"/>
<path d="M159.063 55.0918H142.472C143.588 52.5162 144.273 49.5028 144.527 46.0515C144.78 42.5487 144.679 39.4065 144.222 36.6249C143.816 33.7917 143.233 31.6025 142.472 30.0571C145.567 30.0571 148.611 29.7223 151.605 29.0526C154.649 28.383 157.135 27.3785 159.063 26.0392C157.947 28.9239 157.313 33.4826 157.161 39.7156C157.059 45.9485 157.693 51.0739 159.063 55.0918ZM144.907 24.1075C143.334 22.8712 142.548 21.3774 142.548 19.626C142.548 17.8746 143.334 16.3807 144.907 15.1445C146.531 13.9082 148.484 13.29 150.768 13.29C153.051 13.29 155.004 13.9082 156.628 15.1445C158.252 16.3807 159.063 17.8746 159.063 19.626C159.063 21.3774 158.252 22.8712 156.628 24.1075C155.004 25.2923 153.051 25.8847 150.768 25.8847C148.484 25.8847 146.531 25.2923 144.907 24.1075Z" fill="#EDAF6C"/>
<path d="M187.919 48.6786C188.021 45.2788 186.422 40.3337 183.124 33.8432C180.79 29.3617 178.456 25.8847 176.122 23.4121C173.788 20.9395 171.911 20.3214 170.49 21.5577C169.323 22.5879 169.019 24.2363 169.577 26.5028C170.186 28.7693 171.556 30.5207 173.687 31.757C173.484 33.1478 172.926 34.3068 172.013 35.234C171.15 36.1613 170.11 36.7794 168.892 37.0885C166.457 37.6551 164.427 37.0885 162.803 35.3886C161.18 33.6372 160.52 31.4479 160.825 28.8208C161.028 26.9149 161.789 25.1377 163.108 23.4894C164.478 21.841 166.228 20.4244 168.359 19.2396C171.759 17.3337 175.082 16.4323 178.33 16.5353C181.628 16.6383 184.748 17.6685 187.691 19.626C190.685 21.5319 193.044 24.159 194.769 27.5073C195.53 29.0011 196.088 30.6237 196.443 32.3751C196.849 34.1265 196.976 35.8779 196.824 37.6293C196.723 39.3807 196.342 41.0291 195.682 42.5745C195.074 44.0683 194.109 45.3819 192.79 46.5151C191.471 47.5969 189.847 48.318 187.919 48.6786ZM163.793 44.2744C162.474 41.6988 161.687 38.9429 161.433 36.0067C163.615 38.7884 166.203 39.8443 169.197 39.1747C171.328 38.6596 173.002 37.3718 174.22 35.3113C174.626 36.1355 175.057 36.9597 175.514 37.7839C177.188 41.0291 178.938 43.6305 180.765 45.5879C182.592 47.5454 184.596 48.9104 186.778 49.6831C189.01 50.4558 191.446 50.3012 194.084 49.2195C196.723 48.0862 199.488 46.0258 202.38 43.0381C207.2 38.1445 211.209 32.5554 214.405 26.271C214.608 25.9619 214.938 25.3438 215.395 24.4166C215.851 23.4894 216.181 22.8197 216.384 22.4076C216.638 21.944 216.993 21.3774 217.449 20.7077C217.906 19.9866 218.388 19.3942 218.896 18.9306C219.403 18.467 219.986 18.0291 220.646 17.617C221.559 17.0504 222.599 16.6898 223.766 16.5353C224.933 16.3292 226.126 16.4065 227.344 16.7671C228.612 17.0761 229.754 17.6685 230.768 18.5442C231.783 19.3684 232.62 20.6562 233.28 22.4076C233.94 24.1075 234.269 26.1422 234.269 28.5118C234.269 28.8723 234.269 29.9541 234.269 31.757C234.269 33.5599 234.269 34.9765 234.269 36.0067C234.269 36.9854 234.269 38.402 234.269 40.2564C234.32 42.0593 234.396 43.6047 234.498 44.8925C234.599 46.1288 234.701 47.4681 234.802 48.9104C234.954 50.3012 235.157 51.5375 235.411 52.6193C235.665 53.6495 235.944 54.4737 236.248 55.0918H219.657C220.265 54.1646 220.798 51.3057 221.255 46.5151C221.712 41.673 221.762 36.9597 221.407 32.3751C221.052 27.7391 220.215 25.3695 218.896 25.2665C218.033 25.215 217.196 25.9104 216.384 27.3527C216.13 27.8679 215.877 28.3572 215.623 28.8208C214.912 30.5207 214.202 32.9418 213.492 36.084C213.39 36.4961 213.289 36.9082 213.187 37.3203C213.187 45.9227 213.847 51.8466 215.166 55.0918H197.966C198.625 53.5465 199.133 51.5118 199.488 48.9877C196.545 51.0481 193.424 52.6193 190.126 53.701C186.828 54.7828 183.53 55.2979 180.232 55.2464C176.985 55.1948 173.89 54.2419 170.947 52.3875C168.055 50.533 165.67 47.8287 163.793 44.2744ZM200.173 42.1109C200.325 37.6809 200.173 33.3281 199.716 29.0526C199.259 24.7772 198.676 21.9183 197.966 20.4759C203.242 19.9608 208.316 18.8275 213.187 17.0761V23.953C208.824 32.3494 204.486 38.402 200.173 42.1109Z" fill="#EDAF6C"/>
<path d="M258.152 36.5476C258.202 34.3841 258.228 32.8387 258.228 31.9115C258.126 31.963 257.847 32.2206 257.39 32.6842C256.985 33.1478 256.705 33.4569 256.553 33.6114C256.452 33.7144 256.198 33.9978 255.792 34.4614C255.437 34.8735 255.183 35.2083 255.031 35.4658C254.879 35.6719 254.625 36.0067 254.27 36.4703C253.915 36.8824 253.661 37.243 253.509 37.5521C253.357 37.8611 253.154 38.2732 252.9 38.7884C252.646 39.252 252.443 39.6898 252.291 40.1019C252.139 40.514 251.987 40.9776 251.834 41.4927C251.733 42.0078 251.632 42.523 251.53 43.0381C251.327 44.2744 251.352 45.2531 251.606 45.9742C251.86 46.6954 252.266 47.056 252.824 47.056C253.94 46.953 254.904 46 255.716 44.1971C256.579 42.3427 257.39 39.7928 258.152 36.5476ZM258.152 42.9608C257.644 44.7637 257.111 46.3348 256.553 47.6741C256.046 48.9619 255.335 50.3012 254.422 51.692C253.56 53.0829 252.443 54.1646 251.073 54.9373C249.754 55.6585 248.207 56.019 246.431 56.019C243.589 56.019 241.332 55.0146 239.657 53.0056C238.033 50.9451 237.298 48.5241 237.45 45.7424C237.653 42.9093 238.744 40.4625 240.723 38.402C242.143 36.9082 243.919 35.6204 246.05 34.5386C248.181 33.4054 250.059 32.5812 251.682 32.0661C253.357 31.5509 254.904 30.7783 256.325 29.748C257.796 28.6663 258.735 27.3012 259.141 25.6529C259.547 23.953 259.471 22.3819 258.913 20.9395C258.405 19.4457 257.289 18.6215 255.564 18.467C254.701 18.4155 253.839 18.6473 252.976 19.1624C252.164 19.6775 251.53 20.3471 251.073 21.1713C250.668 21.944 250.591 22.9227 250.845 24.1075C251.099 25.2408 251.784 26.374 252.9 27.5073C251.835 28.8466 250.388 29.748 248.562 30.2116C246.735 30.6237 244.985 30.4177 243.31 29.5935C241.687 28.7693 240.647 27.3785 240.19 25.4211C239.835 22.6394 241.484 20.2441 245.137 18.2352C249.145 16.0717 253.585 15.3247 258.456 15.9944C264.291 16.7156 268.223 19.3684 270.253 23.953C271.115 25.9104 271.547 28.1512 271.547 30.6753L271.623 44.8925C271.623 47.6226 271.876 49.6831 272.384 51.0739C272.891 52.4647 273.703 53.0571 274.819 52.8511C276.291 52.3359 276.849 50.6103 276.494 47.6741C276.189 44.6864 275.2 42.1881 273.525 40.1792C276.418 38.6853 278.65 39.0459 280.223 41.2609C281.593 43.3214 281.796 45.794 280.832 48.6786C279.716 52.1299 277.331 54.3449 273.678 55.3236C272.511 55.6842 271.242 55.8645 269.872 55.8645C262.16 55.8645 258.253 51.5633 258.152 42.9608Z" fill="#EDAF6C"/>
<path d="M340.59 0.0772666C340.184 3.37402 339.829 9.4009 339.525 18.1579C339.271 26.9149 339.22 34.6932 339.373 41.4927C339.423 42.9866 339.449 44.1198 339.449 44.8925C339.499 45.6652 339.576 46.6954 339.677 47.9832C339.829 49.2195 339.981 50.1724 340.134 50.8421C340.337 51.5118 340.616 52.3359 340.971 53.3147C341.326 54.2419 341.732 54.9373 342.189 55.4009C342.645 55.8645 343.229 56.3539 343.939 56.869C344.649 57.3841 345.461 57.7189 346.375 57.8735C347.288 57.9765 348.353 58.028 349.571 58.028C350.789 57.9765 352.159 57.7962 353.681 57.4871C355.305 57.178 356.7 56.5342 357.867 55.5554C359.085 54.5252 359.592 53.3662 359.389 52.0784C359.034 50.0694 357.74 48.7559 355.508 48.1377C353.326 47.5196 351.271 47.8544 349.343 49.1422C347.415 50.43 346.628 52.4132 346.983 55.0918C344.802 54.9373 343.305 53.7525 342.493 51.5375C341.58 49.168 341.909 46.953 343.482 44.8925C345.106 42.832 347.643 41.776 351.093 41.7245C353.021 41.7245 354.823 42.2396 356.497 43.2699C358.222 44.3001 359.617 45.5879 360.683 47.1333C361.748 48.6786 362.586 50.3785 363.195 52.2329C363.55 53.6753 363.727 55.1691 363.727 56.7144C363.778 58.2083 363.524 59.7021 362.966 61.196C362.408 62.6898 361.672 64.0291 360.759 65.2139C359.846 66.3471 358.628 67.2744 357.106 67.9955C355.634 68.6652 354.011 69 352.235 69C350.561 68.9485 348.835 68.4591 347.06 67.5319C345.284 66.6047 343.736 65.5745 342.417 64.4412C341.148 63.2564 339.601 61.9944 337.774 60.6551C335.948 59.2643 334.248 58.234 332.675 57.5644C328.819 55.9675 325.673 55.6327 323.237 56.5599C324.1 54.1389 324.633 51.486 324.836 48.6013C324.988 45.8197 325.166 36.084 325.369 19.3942C325.419 13.1097 325.064 8.03583 324.303 4.17245C321.106 6.5935 318.646 9.65845 316.92 13.3673C315.195 17.0761 314.536 21.1971 314.942 25.7301C315.195 28.9238 316.033 31.7828 317.453 34.3068C318.925 36.8309 320.929 38.7368 323.466 40.0246C318.544 41.5185 314.333 41.8018 310.832 40.8746C307.331 39.8959 304.591 38.1445 302.612 35.6204C300.684 33.0448 299.669 29.9798 299.568 26.4255C299.314 17.5655 302.815 10.869 310.071 6.33595C317.377 1.80291 327.55 -0.283317 340.59 0.0772666Z" fill="#EDAF6C"/>
<path d="M380.626 55.0918H364.034C365.15 52.5162 365.835 49.5028 366.089 46.0515C366.343 42.5487 366.241 39.4065 365.785 36.6249C365.379 33.7917 364.795 31.6025 364.034 30.0571C367.129 30.0571 370.174 29.7223 373.167 29.0526C376.212 28.383 378.698 27.3785 380.626 26.0392C379.51 28.9239 378.875 33.4826 378.723 39.7156C378.622 45.9485 379.256 51.0739 380.626 55.0918ZM366.47 24.1075C364.897 22.8712 364.11 21.3774 364.11 19.626C364.11 17.8746 364.897 16.3807 366.47 15.1445C368.093 13.9082 370.047 13.29 372.33 13.29C374.613 13.29 376.567 13.9082 378.19 15.1445C379.814 16.3807 380.626 17.8746 380.626 19.626C380.626 21.3774 379.814 22.8712 378.19 24.1075C376.567 25.2923 374.613 25.8847 372.33 25.8847C370.047 25.8847 368.093 25.2923 366.47 24.1075Z" fill="#EDAF6C"/>
<path d="M400.706 40.2564C401.061 41.6988 401.492 42.9093 402 43.888C402.507 44.8667 403.065 45.5621 403.674 45.9742C404.283 46.3348 404.943 46.206 405.653 45.5879C406.363 44.9183 406.998 43.7077 407.556 41.9563C409.129 37.3718 409.991 33.0705 410.143 29.0526C410.194 26.0649 409.966 23.6181 409.458 21.7122C408.951 19.8063 407.962 18.2352 406.49 16.9989C408.469 15.8656 410.143 15.6853 411.513 16.458C412.934 17.2307 413.771 18.57 414.025 20.4759C414.431 23.6697 413.492 29.6708 411.209 38.4793C408.976 47.2363 406.896 52.4132 404.968 54.0101C403.903 54.9373 402.634 55.5812 401.163 55.9418C399.691 56.2508 398.118 56.1478 396.444 55.6327C394.82 55.1176 393.476 54.0616 392.41 52.4647C391.294 50.7133 390.051 47.159 388.681 41.8018C387.311 36.4446 385.966 31.2934 384.647 26.3483C383.328 21.3516 382.085 18.2609 380.918 17.0761H398.879C398.118 18.0034 397.687 19.6775 397.586 22.0985C397.484 24.4681 397.738 27.0694 398.347 29.9026L400.706 40.2564Z" fill="#EDAF6C"/>
<path d="M431.144 27.5845C430.941 28.8723 430.788 30.7525 430.687 33.2251C430.585 35.6461 430.56 38.2217 430.611 40.9518C430.662 43.6305 430.864 46.3091 431.22 48.9877C431.575 51.6148 432.031 53.6495 432.59 55.0918H415.313C416.48 52.5162 417.19 48.6786 417.444 43.5789C417.748 38.4793 417.672 33.7402 417.216 29.3617C416.759 24.9317 416.125 21.9698 415.313 20.4759C420.641 19.9608 425.74 18.8275 430.611 17.0761V21.0941C430.966 20.5274 431.346 20.0381 431.752 19.626C433.833 17.5655 436.344 16.561 439.287 16.6125C442.129 16.7156 444.488 17.9776 446.365 20.3987C448.293 22.8197 449.283 25.5756 449.334 28.6663C449.334 30.9328 448.826 32.8903 447.811 34.5386C446.847 36.1355 445.604 37.2945 444.082 38.0157C442.611 38.6853 440.987 38.9944 439.211 38.9429C437.486 38.8399 435.888 38.3505 434.416 37.4748C435.735 36.4961 436.623 34.8735 437.08 32.6069C437.587 30.2889 437.587 28.1254 437.08 26.1165C436.623 24.1075 435.812 23 434.645 22.794C432.97 22.4334 431.803 24.0302 431.144 27.5845Z" fill="#EDAF6C"/>
<path d="M452.49 29.439C453.758 24.3393 456.523 20.6305 460.785 18.3124C465.048 15.9944 469.563 15.7368 474.333 17.5398C479.153 19.3427 482.806 22.6652 485.292 27.5073C487.779 32.3494 488.388 37.3203 487.119 42.4199C485.851 47.4681 483.085 51.1512 478.823 53.4692C474.561 55.7872 470.02 56.0448 465.2 54.2419C460.43 52.439 456.802 49.1165 454.316 44.2744C451.83 39.4323 451.221 34.4871 452.49 29.439ZM473.572 33.8432C471.441 29.5677 469.234 26.1937 466.95 23.7212C464.718 21.2486 463.069 20.2956 462.003 20.8623C460.938 21.4289 460.785 23.3606 461.547 26.6573C462.308 29.9026 463.779 33.6629 465.961 37.9384C468.143 42.1624 470.35 45.5364 472.582 48.0605C474.866 50.533 476.54 51.486 477.605 50.9194C478.62 50.3527 478.747 48.4211 477.986 45.1243C477.276 41.8275 475.804 38.0672 473.572 33.8432Z" fill="#EDAF6C"/>
<path d="M494.751 22.8712C495.614 21.0683 497.035 19.5745 499.013 18.3897C501.043 17.2049 503.174 16.4838 505.407 16.2262C507.69 15.9171 509.897 15.9171 512.028 16.2262C514.21 16.4838 516.036 17.2307 517.508 18.467C518.979 19.6517 519.74 21.1198 519.791 22.8712C519.842 24.0045 519.512 25.009 518.802 25.8847C518.142 26.7604 517.254 27.3785 516.138 27.7391C515.072 28.0482 513.931 28.1512 512.713 28.0481C511.546 27.9451 510.43 27.533 509.364 26.8119C508.299 26.0907 507.487 25.0862 506.929 23.7984C508.4 23.3863 509.288 22.7682 509.593 21.944C509.948 21.0683 509.77 20.2956 509.06 19.626C508.349 18.9563 507.411 18.5957 506.244 18.5442C504.874 18.4927 503.884 18.9563 503.276 19.9351C502.667 20.8623 502.464 21.8152 502.667 22.794C502.717 23.0515 502.768 23.2833 502.819 23.4894C502.92 23.6954 503.047 23.9272 503.199 24.1848C503.402 24.3908 503.555 24.5969 503.656 24.8029C503.808 24.9574 504.011 25.1377 504.265 25.3438C504.519 25.5498 504.696 25.7301 504.798 25.8847C504.95 25.9877 505.204 26.168 505.559 26.4255C505.914 26.6831 506.142 26.8634 506.244 26.9664C506.396 27.0179 506.675 27.1725 507.081 27.43C507.487 27.6876 507.741 27.8679 507.842 27.9709C513.677 31.8343 517.229 34.2553 518.497 35.234C520.425 36.6764 521.897 38.0672 522.912 39.4065C523.977 40.7458 524.637 42.2654 524.89 43.9653C525.195 46.0258 524.865 47.8802 523.901 49.5286C522.988 51.1254 521.618 52.4132 519.791 53.3919C517.964 54.3707 515.96 55.1176 513.779 55.6327C511.597 56.0963 509.313 56.3539 506.929 56.4054C500.383 56.5084 495.665 55.6069 492.773 53.701C489.88 51.7951 488.485 49.4513 488.587 46.6697C488.637 45.0213 489.272 43.6562 490.489 42.5745C491.758 41.4927 493.432 40.9261 495.512 40.8746C497.643 40.8231 500.104 41.57 502.895 43.1153C501.728 44.0425 501.018 45.1758 500.764 46.5151C500.51 47.8029 500.637 48.9877 501.144 50.0694C501.703 51.1512 502.616 52.0784 503.884 52.8511C505.153 53.5722 506.574 53.9071 508.146 53.8555C510.024 53.7525 511.343 52.9541 512.104 51.4602C512.51 50.8421 512.637 50.1982 512.485 49.5286C512.383 48.8074 512.18 48.1892 511.876 47.6741C511.571 47.1075 511.089 46.5151 510.43 45.897C509.821 45.2788 509.187 44.7122 508.527 44.1971C507.867 43.682 507.106 43.1669 506.244 42.6517C505.381 42.0851 504.595 41.5957 503.884 41.1837C503.225 40.7716 502.514 40.3595 501.753 39.9474C501.043 39.4838 500.459 39.0717 500.003 38.7111C497.973 37.2172 496.4 35.5174 495.284 33.6114C494.219 31.7055 493.66 29.8768 493.61 28.1254C493.61 26.3225 493.99 24.5711 494.751 22.8712Z" fill="#EDAF6C"/>
</svg>
